<svg xmlns="http://www.w3.org/2000/svg" xmlns:xlink="http://www.w3.org/1999/xlink" width="768" height="300" fill="none" xmlns:v="https://vecta.io/nano"><style><![CDATA[.B{fill:#fff}.C{fill-rule:evenodd}.D{stroke:#fff}.E{stroke-width:.533}]]></style><path fill="url(#B)" d="M0 0h768v300H0z"/><g clip-path="url(#C)"><mask id="A" mask-type="alpha" maskUnits="userSpaceOnUse" x="0" y="0" width="768" height="300"><path d="M0 0h768v300H0z" class="B"/></mask><g mask="url(#A)"><path d="M719.326-4.15c-.234-.727-.645-1.429-.879-2.156s-.28-1.596-.514-2.323l-.717-2.23c-.233-.727-.564-1.466-.838-2.175l-.717-2.23-.716-2.23-.352-.951c-.237-.448-.511-.433-.901-.199-.308.197-.545.473-.782.748-.474.551-1.05.927-1.523 1.478s-.82 1.21-1.293 1.762l-1.452 1.556c-.489.503-.947 1.102-1.421 1.653l-1.38 1.635c-.474.551-1.106.897-1.58 1.448s-.819 1.211-1.293 1.762l-1.38 1.635-1.452 1.556-1.452 1.556-1.364 1.683-1.436 1.605-1.349 1.732-1.452 1.556-1.38 1.635c-.474.551-1.05.927-1.524 1.478l-1.38 1.635-1.436 1.605-1.452 1.556-1.38 1.635-1.365 1.683c-.474.551-1.034.975-1.508 1.526l-1.452 1.556-1.436 1.605-1.365 1.683-1.402 1.422-1.314 1.549-1.315 1.549c-.449.484-.826 1.046-1.259 1.579s-.897.968-1.346 1.452l-1.315 1.549-1.33 1.501c-.604.722-.854.67-1.284.2-.645-.706-.626-.937.084-1.763l1.381-1.635 1.38-1.635 1.411-1.538 1.412-1.538 1.324-1.665c.473-.551 1.009-.908 1.483-1.459s.835-1.162 1.308-1.713l1.38-1.635c.474-.551.994-.957 1.468-1.508l1.411-1.538c.474-.551.819-1.21 1.309-1.713l1.411-1.538c.474-.551.994-.957 1.467-1.508l1.412-1.538c.473-.551.835-1.162 1.308-1.713s.994-.957 1.468-1.508l1.324-1.665 1.38-1.635 1.396-1.586 1.411-1.538 1.396-1.586 1.38-1.635 1.396-1.586 1.411-1.538 1.396-1.586 1.411-1.538c.433-.533.994-.957 1.468-1.508s.835-1.162 1.308-1.713l1.443-1.441 1.386-1.471c.449-.484.795-1.143 1.243-1.627l1.371-1.519c.449-.484.866-1.065 1.299-1.598.776-.912.925-1.315.576-2.546l-.813-2.242-.732-2.279c-.352-.951-.592-1.119-1.3-.572s-1.327 1.221-2.065 1.671a6.97 6.97 0 0 1-1.863.855c-.623.23-1.324.218-1.954.284-.645.018-1.33.054-1.957-.159-.61-.165-1.202-.561-1.794-.957-.536-.366-1.063-.848-1.54-1.463-.405-.538-.825-1.123-1.212-1.892l-1.025-2.033c-.134-.272-.221-.399-.495-.385s-.349.216-.449.484c-.134.451-.364.891-.483 1.39l-.573 2.266-.614 2.284c-.233.719-.62 1.397-.894 2.135a23.42 23.42 0 0 1-1.009 2.355l-1.137 2.247c-.427.697-.91 1.363-1.449 2-.302.361-.732.614-1.019 1.024-.367.447-.243.835.237 1.171a3.73 3.73 0 0 0 .785.419c.337.179.502.549.53.925.053 1.033-.371 1.45-1.346 1.452-.645.018-1.265-.032-1.894.035-.645.018-1.259.133-1.904.15-.629.066-1.249.017-1.879.083l-1.888.199c-.629.066-1.252.297-1.866.411l-1.842.344c-.613.115-1.252.297-1.85.46s-1.243.181-1.842.344-1.205.442-1.788.654-1.212.278-1.82.557c-.582.212-1.159.587-1.726.848s-1.205.442-1.757.751-1.056.763-1.592 1.12c-.642.461-1.212 1.001-1.782 1.541s-1.109 1.177-1.592 1.843-.91 1.363-1.249 2.187c-.356.775-.574 1.543-.736 2.34-.146.846-.115 1.666-.003 2.449s.24 1.615.586 2.402c.315.69.726 1.392 1.244 1.989s1.14 1.09 1.723 1.602 1.23.937 1.879 1.363c.479.336.944.624 1.448.893s1.035.471 1.524.692l1.539.74c.321.131.617.329.692.851.109 1.063-.274 1.461-1.143 1.359-.717-.061-1.427.043-2.128.031l-2.119-.085-2.103-.037c-.686.036-1.402-.024-2.128.031-.686.036-1.396.14-2.107.243l-2.115.359c-.711.103-1.374.352-2.053.553-.695.152-1.359.401-2.063.668-.664.249-1.374.352-2.063.668-.632.346-1.218.837-1.819 1.28-.536.357-1.016.744-1.48 1.18s-.841.998-1.234 1.512c-.377.562-.825 1.046-1.075 1.717-.264.622-.361 1.334-.514 2.016-.137.731-.233 1.442-.249 2.117 0 .723.097 1.458.219 2.125.137.716.395 1.376.679 1.969.299.642.583 1.235 1.028 1.754a10.58 10.58 0 0 0 1.452 1.337c.664.474 1.402.747 2.116 1.088s1.418.796 2.165.954c.595.116 1.1.386 1.212 1.168.128.832-.084 1.04-.775 1.636l-1.807 1.608-1.736 1.687-1.648 1.813-1.495 1.855c-.483.667-.869 1.345-1.281 2.09-.37.727-.67 1.531-.928 2.318-.234.719-.427 1.42-.523 2.132-.081.76 0 1.447.193 2.192.162.649.502 1.272.897 1.925a5.56 5.56 0 0 0 1.306 1.46c.495.385 1.031.751 1.626.867.555.135 1.159.136 1.814.002.751-.122 1.511-.359 2.184-.724s1.268-.971 1.894-1.481l1.58-1.448 1.523-1.478c.474-.551.86-1.229 1.293-1.762l1.293-1.762 1.221-1.84c.493-.782 1.05-.927 1.739-.52.464.288.474.895.548 1.418.081.686.244 1.335.406 1.984s.38 1.328.623 1.94.567 1.186.891 1.761a10.56 10.56 0 0 0 1.334 1.836c.542.53 1.059 1.127 1.676 1.456s1.309.457 1.985.536c.691.128 1.383.255 2.037.122s1.334-.334 2.007-.698c.592-.327 1.193-.77 1.763-1.31.611-.558 1.15-1.195 1.617-1.91s.751-1.569 1.091-2.392c.355-.775.807-1.539 1.09-2.392.259-.786.38-1.565.583-2.382l.638-2.351c.162-.798.172-1.636.293-2.415l.293-2.415c.065-.809.283-1.577.333-2.434l.121-2.225.162-2.244c.041-.742-.112-1.506-.112-2.229l-.016-2.218c.01-.839.206-1.096.957-1.218.67-.085.747.158.941.904.224.843.57 1.63.85 2.503l.67 2.085.792 2.029c.299.642.573 1.35.953 1.955s.892 1.038 1.337 1.556c.517.597.979 1.165 1.571 1.561.632.377 1.283.524 1.975.651.636.098 1.343.274 2.038.122.776-.189 1.442-.718 2.14-1.149s1.268-.971 1.888-1.645l1.25-1.463 1.121-1.572.907-1.807.794-1.867.738-1.897.767-2.243c.218-.768.283-1.577.501-2.344.178-.749.549-1.476.711-2.273l.405-2.356.252-2.397c.121-.779.436-1.535.557-2.314s-.006-1.61.059-2.419l.346-2.106c.056-.693.016-1.398.056-2.14l.209-2.099c.012-.395.074-.924.439-1.092.738-.45 1.411-.091 1.667.849l1.069 3.182c.265.824.408 1.704.738 2.443.346.787.692 1.574 1.144 2.257.411.701 1.035 1.194 1.567 1.84.589.676 1.072 1.456 1.761 1.863s1.452.613 2.281.734c.716.061 1.377.091 2.031-.042.695-.152 1.312-.546 1.888-.922.617-.394 1.178-.819 1.692-1.388a8.45 8.45 0 0 0 1.246-1.907c.33-.708.589-1.494.751-2.292a10.21 10.21 0 0 0 .196-2.427c-.031-.82-.265-1.548-.53-2.372l-.676-2.249-.717-2.23-.676-2.249-.757-2.212-.677-2.249c-.37-.72-.564-1.466-.813-2.242zM16.378 51.536C9.537 26.695 28.46 13.464 33.627 12.63c2.371-.387 4.52.127 6.081 1.321h0c1.857 1.431 2.959 3.861 2.813 7.068-.288 6.655-17.005 18.485-6.93 36.23 3.645 6.403 8.724 8.867 10.042 14.601a9.87 9.87 0 0 0 3.68 5.695 34.71 34.71 0 0 0 3.665 2.374l-.84 2.541h0l-.425 1.303-.554-.262a117.15 117.15 0 0 1-5.346-2.749c-1.362-.763-2.838-1.087-4.227-.927-9.719 1.265-22.019-16.742-25.208-28.288z" class="D E"/><path d="M16.418 51.634C9.436 26.591 28.321 13.369 33.493 12.556c2.373-.378 4.528.151 6.098 1.361-6.748 2.021-16.699 11.991-18.865 23.817-2.736 15.01 7.249 29.627 11.593 33.217 8.152 6.802 10.64 6.956 12.364 7.457s7.922 2.96 7.922 2.96l-.563 2.025c-1.38-.675-4.051-1.927-6.188-3.111-1.368-.775-2.738-.739-4.129-.586-9.744 1.223-22.054-16.422-25.308-28.062z" class="D E"/><path d="M51.95 84.288s.58.134 1.129-1.242.849-2.95.403-3.189-1.245 1.149-1.46 1.855-.636 2.134-.072 2.576zm-5.996-10.96a16.87 16.87 0 0 0-1.405-4.093 29.72 29.72 0 0 0-3.857-4.991c-2.437-2.61-4.553-5.545-6.275-8.702-1.655-3.56-2.473-7.369-2.368-11.033.209-2.876.842-5.616 1.876-8.121a76.9 76.9 0 0 1 4.65-8.615c1.202-1.87 4.441-5.395 3.05-10.529 0 0-18.181 11.221-15.59 28.314s19.92 27.769 19.92 27.769zm-4.376-56.566c-.547-1.194-1.452-2.196-2.563-2.839 0 0-.416-.247-.143-.389s2.324-.593 3.022.144.081 3.408-.316 3.083z" class="D E"/><path d="M159.729-.649l-.099.247.311.123.052-.329-.264-.041zm8.474-5.496l.014-.265h-.001l-.013.266zM152.448.996l-.235-.125-.006.011.241.114zm.475 4.626l.121.237.263-.133-.159-.247-.225.144zm-6.849 10.641l.262.05.001-.003-.263-.048zm1.065 8.934l-.245.104v.001l.245-.105zm3.703 5.24l-.184.193.001.001.183-.194zm3.372 2.276l.252.086.078-.226-.217-.101-.113.241zm1.741 5.65l-.181.196.007.007.174-.202zm5.623 1.412l.24-.117-.097-.198-.214.059.071.256zm1.296 1.853l.196-.18-.002-.002-.194.183zm10.496 1.588l.142-.225-.22-.137-.144.215.222.147zm6.418-.411l-.202-.173.202.173zm-1.495-7.406l-.019-.265-.564.042.39.407.193-.184zm39.682 5.597l-.09.25.142.05.117-.095-.169-.206zm2.805-7.644l-.267-.006v.003l.267.003zm-.056-1.639l.266-.024-.016-.177-.17-.053-.08.254zm-32.69-16.474l-.231-.133-.118.205.19.141.159-.213zm-1.122-6.186l-.195.181.002.002.193-.183zm-.583-.542l-.26-.062-.039.163.131.105.168-.207zm-2.093-6.615l-.193.183.001.002.192-.185zM176.307.128l-.244.107.092.21.222-.06-.07-.257zm8.18 29.696l-.267.017.015.237.238.012.014-.266zm7.021.504l-.022.265.135-.506-.113.241zm-8.659-4.016l.113-.241-.304.426.191-.185zm9.32-2.95l-.101.246.19.077.123-.163-.212-.16zm-4.787-1.933l-.23-.134-.156.265.286.115.1-.246zm4.801 1.914l.213.16.183-.241-.264-.15-.132.231zm-4.475-2.625l.137-.228-.283-.17-.107.312.253.085zM159.993-.608c.311-1.988 1.356-3.342 2.814-4.184 1.467-.847 3.368-1.182 5.384-1.088l.025-.531c-2.081-.098-4.093.245-5.676 1.159-1.593.919-2.737 2.41-3.075 4.562l.528.082zm-7.309 1.728c.68-1.273 1.74-1.909 2.964-2.105 1.235-.198 2.644.054 3.982.583l.198-.494c-1.395-.551-2.904-.831-4.264-.613a4.44 4.44 0 0 0-3.351 2.38l.471.249zm.464 4.357c-.921-1.43-1.078-3.07-.459-4.368l-.482-.228c-.711 1.491-.511 3.326.492 4.883l.449-.287zm-6.811 10.833c1.118-6.067 3.907-9.03 6.707-10.452l-.242-.474c-2.967 1.507-5.845 4.622-6.99 10.831l.525.096zm1.048 8.783c-1.238-2.913-1.599-5.964-1.049-8.78l-.523-.101c-.573 2.93-.195 6.089 1.081 9.089l.491-.208zm3.64 5.15c-1.581-1.487-2.827-3.252-3.64-5.151l-.491.209c.843 1.97 2.133 3.794 3.764 5.329l.367-.387zm3.302 2.228c-1.205-.563-2.325-1.318-3.303-2.229l-.365.389c1.019.948 2.186 1.736 3.441 2.322l.227-.482zm1.808 5.695c-1.632-1.497-2.269-3.626-1.669-5.368l-.505-.172c-.682 1.981.057 4.321 1.813 5.932l.361-.391zm5.372 1.351c-1.745.483-3.81-.027-5.379-1.358l-.347.405c1.686 1.43 3.93 2.002 5.868 1.466l-.142-.512zm1.561 1.926c-.512-.54-.935-1.145-1.25-1.787l-.479.234c.339.692.793 1.341 1.341 1.918l.388-.365zm10.08 1.624c-.993 1.486-2.647 1.989-4.504 1.664-1.865-.325-3.905-1.485-5.574-3.286l-.392.361c1.731 1.869 3.872 3.099 5.873 3.449 2.008.351 3.901-.187 5.041-1.894l-.444-.294zm6.438-.437c-1.153 1.337-2.642 1.441-3.884 1.195-.621-.123-1.171-.333-1.566-.513a7 7 0 0 1-.463-.231c-.054-.029-.095-.053-.122-.069-.014-.008-.024-.014-.03-.018l-.009-.005s0 0-.142.225l-.142.225.051.031.137.077c.117.065.287.152.497.249a7.77 7.77 0 0 0 1.685.551c1.347.267 3.067.166 4.392-1.371l-.404-.346zm-1.486-7.049c.53.552 1.494 1.655 2.024 2.96.526 1.294.614 2.751-.538 4.088l.404.346c1.325-1.537 1.202-3.224.629-4.635-.569-1.4-1.591-2.563-2.133-3.128l-.386.367zm39.965 5.163c-13.129-4.662-26.731-6.581-39.791-5.612l.039.53c12.981-.964 26.509.944 39.572 5.582l.18-.501zm2.448-7.397c-.037 2.665-.726 4.533-1.397 5.729-.336.599-.668 1.031-.914 1.312a4.95 4.95 0 0 1-.294.309c-.035.033-.061.057-.079.073-.008.008-.015.013-.019.016s-.004.003.165.209l.169.206.038-.033c.023-.02.055-.049.095-.087.08-.077.192-.19.327-.343a8.26 8.26 0 0 0 .978-1.402c.713-1.27 1.426-3.224 1.464-5.981l-.533-.007zm-.054-1.611c.048.54.066 1.077.054 1.609l.533.012a14.6 14.6 0 0 0-.056-1.669l-.531.048zm-32.584-16.285c7.36 5.461 15.552 9.589 21.901 12.351 3.175 1.381 5.89 2.422 7.813 3.117l2.248.784.599.197.155.049.04.012c.014.004.014.004.093-.249l.08-.254-.051-.016-.152-.049-.594-.195-2.236-.779c-1.913-.692-4.618-1.729-7.781-3.105-6.328-2.753-14.481-6.862-21.796-12.29l-.319.427zm-1.156-6.216c1.679 1.757 2.086 4.14 1.084 5.87l.463.265c1.145-1.979.643-4.614-1.16-6.502l-.387.367zm-.558-.519a5.38 5.38 0 0 1 .556.517l.391-.363c-.19-.203-.394-.392-.611-.568l-.336.413zm-2.117-6.637c1.779 1.832 2.534 4.255 2.025 6.369l.519.123c.558-2.319-.277-4.923-2.16-6.862l-.384.37zM176.307.128l.07.257.05-.013.156-.036c.136-.03.336-.069.585-.106a10.99 10.99 0 0 1 1.98-.118c1.575.052 3.476.483 4.895 1.968l.386-.367c-1.553-1.625-3.616-2.078-5.263-2.132a11.52 11.52 0 0 0-2.077.124 9.95 9.95 0 0 0-.619.113l-.17.039-.045.011c-.017.005-.017.005.052.261zm-8.117-6.007c2.633.135 4.597 1.645 5.915 3.151.658.751 1.148 1.494 1.475 2.05a12.22 12.22 0 0 1 .365.668l.09.184.022.047c.006.014.006.014.25-.093l.245-.107-.009-.02-.025-.053a7.64 7.64 0 0 0-.096-.197 12.11 12.11 0 0 0-.382-.698 14.08 14.08 0 0 0-1.533-2.131c-1.366-1.561-3.454-3.187-6.29-3.332l-.027.531zm16.283 35.969c2.388.122 4.774.317 7.013.503l.045-.53-7.03-.504-.028.531zm-1.815-3.593c.933.958 1.488 2.157 1.562 3.344l.533-.034c-.083-1.326-.7-2.642-1.712-3.681l-.383.371zm8.963 3.59l-8.659-4.016-.225.482 8.658 4.016.226-.482zm.648-6.971l-4.787-1.933-.2.493 4.786 1.933.201-.493zm-.299.067l-.014.019.425.32.015-.019-.426-.32zm-4.4-2.237l3.239 1.912.916.529.242.139.062.036.02.011c.001.001.001.001.134-.23l.132-.231-.02-.012-.062-.035-.241-.138-.913-.528-3.234-1.909-.275.456zm.042.618a4.16 4.16 0 0 0 .348-.76l-.505-.171a3.63 3.63 0 0 1-.303.663l.46.268z" class="B"/><path d="M184.183 1.715c1.87 1.905 2.713 4.415 2.217 6.606.211.17.41.353.595.549 1.779 1.84 2.28 4.34 1.236 6.162 14.914 11.072 33.083 16.937 33.083 16.937a14.2 14.2 0 0 1 .085 1.628c-25.979-9.707-36.625-18.98-36.625-18.98 1.602-2.761-2.137-5.639-2.137-5.639.676-1.406.597-3.147-.216-4.768-1.345-3.158-6.176-4.355-6.176-4.355s4.925-1.262 7.938 1.861zm-21.306 14.794c-1.734-1.076-2.379-3.336-1.564-5.478 1.152-3.341 4.996-3.216 4.996-3.216-1.639.609-3.026 1.903-3.791 3.538-.768 1.78-.633 3.73.359 5.155z" class="B C"/><path d="M166.607 13.858c-1.737-1.081-2.381-3.345-1.562-5.487 1.158-3.33 4.993-3.208 4.993-3.208-1.643.609-3.031 1.904-3.795 3.542-.762 1.778-.624 3.725.364 5.153zM156.398 25.82c-1.636-.924-2.635-2.645-2.44-4.2.263-1.601 1.816-2.513 3.649-2.142-1.154.465-1.94 1.41-2.169 2.612s.118 2.552.96 3.73zm2.668 3.713c-1.63-.922-2.629-2.635-2.444-4.188.26-1.604 1.81-2.523 3.644-2.16a3.48 3.48 0 0 0-2.161 2.62c-.227 1.202.121 2.551.961 3.729zm10.687 6.317c-1.582-.723-2.591-2.321-2.475-3.918.155-1.609 1.499-2.752 3.196-2.719 0 0-3.195 2.053-.721 6.637zm9.05-14.84c-1.569-.736-2.57-2.322-2.475-3.92.159-1.609 1.503-2.754 3.197-2.725 0 0-3.236 2.027-.722 6.645zM159.578 8.348c-1.429-.929-2.317-2.45-2.266-3.883-.133-2.701 2.973-2.874 2.973-2.874-2.074 1.395-2.374 4.263-.707 6.758z" class="B C"/><path d="M754.362 267.215l-24.26-14.69c1.508-5.976 4.759-12.808 12.97-28.698.104-.214.22-.419.331-.632l2.447-4.656.328-.618 2.535-4.599c.109-.206.231-.41.341-.616l2.64-4.539c.115-.205.242-.401.364-.605.94-1.566 1.874-3.061 2.788-4.465l.385-.573a73.87 73.87 0 0 1 3.064-4.35l.42-.553c3.211-4.11 5.998-6.437 7.945-5.741l.137.022a.61.61 0 0 1 .112.061c1.832.944 2.373 4.695 2.083 10.095l-.05.712c-.112 1.668-.297 3.475-.538 5.389l-.111.703c-.229 1.678-.498 3.45-.839 5.269l-.111.703c-.27 1.693-.618 3.439-.964 5.214-.037.231-.075.47-.143.697l-1.078 5.167c-.037.232-.112.465-.155.696l-1.16 5.118c-.038.239-.119.471-.168.694-4.176 17.894-9.313 34.795-9.313 34.795z" class="D E"/><path d="M746.547 210.033s5.748 25.068-6.903 59.571c0 0-15.112-1.431-9.401-20.768s16.304-38.803 16.304-38.803z" class="B C D E"/><path d="M771.879 221.046s-19.909 13.114-32.366 47.519c0 0 11.869 11.003 19.862-7.21s12.504-40.309 12.504-40.309z" class="B C D E"/><path d="M758.431 216.221c-28.946 32.513-27.104 46.302-24.748 50.958.864 1.635 1.19 3.587.922 5.523l-.468 3.184 1.621.724 1.622.717 1.713-2.623c1.053-1.584 2.54-2.727 4.206-3.234 4.663-1.497 14.855-9.945 15.132-55.249z" class="B C D E"/><path d="M19.419 180.147l-22.176-13.38c1.374-5.436 4.34-11.65 11.833-26.103.095-.194.201-.381.302-.574l2.233-4.235.3-.562 2.313-4.182c.1-.188.211-.373.311-.561l2.409-4.128c.106-.186.222-.364.333-.55a131.44 131.44 0 0 1 2.544-4.061l.352-.521c.955-1.452 1.888-2.771 2.797-3.955a14.51 14.51 0 0 1 .384-.503c2.931-3.738 5.476-5.853 7.256-5.218l.125.019c.036.015.07.034.102.056 1.674.86 2.171 4.273 1.909 9.185l-.045.649c-.101 1.517-.269 3.161-.488 4.902l-.102.639a96.97 96.97 0 0 1-.763 4.794l-.102.639c-.245 1.541-.562 3.129-.877 4.743-.034.211-.068.429-.13.635l-.981 4.701c-.034.21-.102.422-.142.632l-1.056 4.656c-.034.218-.109.429-.153.631-3.805 16.279-8.488 31.652-8.488 31.652z" class="D E"/><path d="M12.185 128.31s5.424 22.879-6.244 54.308c0 0-14.067-1.351-8.811-18.969s15.055-35.339 15.055-35.339z" class="B C D E"/><path d="M34.519 138.084s-17.773 11.857-28.936 42.901c0 0 10.564 9.902 17.72-6.535s11.215-36.366 11.215-36.366z" class="B C D E"/><path d="M23.405 133.336C-2.694 162.899-1.054 175.419 1.06 179.644c.776 1.484 1.067 3.256.823 5.014l-.425 2.892 1.458.656 1.459.649 1.545-2.385c.95-1.439 2.29-2.479 3.791-2.942 4.199-1.365 13.385-9.05 13.693-50.192z" class="B C D E"/><path d="M192.016 270.582s10.19 8.203 17.687 11.085l-.151.827-1.251 6.433s-20.02-1.277-32.122.13c-.747-1.62-.984-3.359-.686-5.028 0 0 15.192-.233 24.503.932 0 0-13.427-4.752-20.114-7.908l.89-1.576.857-1.537 19.848 7.171c-.574-.356-9.865-6.131-11.408-8.321l1.088-1.246.859-.962z" class="B C"/><path d="M230.95 265.718c20.506 5.571 17.501 23.465 27.793 28.717 8.428 4.298 11.326 3.537 14.229 5.587-3.404.786-5.839-1.044-15.164-.276-11.391.944-14.701 18.754-35.705 16.048-22.592-2.902-16.382-29.184-16.382-29.184a35.85 35.85 0 0 1 .897-4.369c2.002-7.347 7.948-20.976 24.332-16.523z" class="D E"/><path d="M230.569 264.515c20.517 5.582 17.434 23.784 27.722 29.082 8.424 4.336 11.33 3.551 14.229 5.623-3.494-1.51-15.669-2.844-19.066-4.876s-13.289-14.946-25.629-18.364c-14.992-4.153-21.66 5.436-21.66 5.436 2.002-7.485 8.012-21.363 24.404-16.901zm-23.027 35.439s3.157 12.548 16.255 14.284c0 0 11.669 1.264 17.606-4.821 0 0-9.923 2.612-18.72.733-9.78-2.086-15.141-10.196-15.141-10.196z" class="B C"/><path d="M212.684 308.649l2.615-9.72.97-3.585.862-3.115.648-2.193.261-.824-.097.856-.316 2.274-1.474 6.789-1.064 3.563-1.109 3.053-.906 2.1-.39.802zm19.024-3.087l2.196-9.814.82-3.623.73-3.148.555-2.215.212-.847-.052.867-.203 2.284a64.79 64.79 0 0 1-1.152 6.85l-.902 3.602c-.287 1.144-.676 2.195-.998 3.091l-.836 2.136-.37.817zm-4.928-12.753l.262-1.048c.167-.663.315-1.638.539-2.788l.671-3.952.651-4.551.538-4.569.211-2.118.165-1.889.254-2.84.102-1.088.097 1.1.132 2.871-.062 4.067-.422 4.616-.784 4.574-.98 3.912c-.287 1.144-.677 2.067-.914 2.714s-.46.989-.46.989zm13.958 14.434l.279-1.111.733-2.928.84-4.17.825-4.813.679-4.83.261-2.238.219-2.012.306-3.014.137-1.147.115 1.17.177 3.095-.078 4.329-.522 4.909c-.239 1.662-.594 3.296-.987 4.812l-1.257 4.096c-.394 1.192-.864 2.148-1.156 2.823s-.571 1.029-.571 1.029z" class="B C"/><path d="M662.272 251.858c-6.62 8.184-8.923 13.518-8.923 13.518l-1.593-.489s.191-5.983-2.207-16.933c-1.553-7.055.486-6.058 2.159-4.421.281.285.682.335 1.008.126s.508-.633.458-1.067c-.35-3.848-.796-10.216.136-11.439.525-.706 1.25-.377 1.943.272.292.261.689.285 1.002.061s.477-.651.416-1.077c-.462-3.311-.924-7.911-.294-9.849.541-1.684 1.736-1.562 2.812-.31.194.234.469.351.746.316s.524-.217.672-.495c.621-1.185 1.378-1.882 2.063-1.882h0a.86.86 0 0 1 .215 0c.733.226 1.171 1.364 1.227 2.898a1.14 1.14 0 0 0 .383.829c.228.193.519.251.788.159 1.458-.471 2.549.113 2.326 1.881-.254 2.051-2.557 5.804-4.325 8.467a1.21 1.21 0 0 0-.083 1.165c.174.372.521.584.879.537.869-.169 1.641 0 1.801.885.286 1.589-2.701 6.914-4.589 10.065-.213.352-.223.822-.024 1.185s.565.546.924.462c2.143-.433 4.35-.132.08 5.136z" class="D E"/><path d="M661.973 251.842c-6.948 8.194-9.364 13.534-9.364 13.534l-.418-.122c1.266-3.306 2.859-6.44 4.749-9.343 2.341-3.495 5.593-6.791 5.518-7.837 0-.508-1.488-.169-2.926.311-.393.132-.816-.036-1.048-.416s-.221-.885.028-1.251c2.441-3.673 6.303-9.852 5.333-10.916-.342-.377-1.153-.254-2.031 0-.366.09-.744-.071-.965-.412s-.243-.796-.055-1.161c2.366-3.654 5.852-9.343 5.426-10.238-.385-.744-1.121-.65-1.814-.301-.31.152-.668.106-.938-.122s-.41-.603-.367-.98c.377-3.334-.602-4.333-.677-4.399a.95.95 0 0 1 .226 0c.769.226 1.229 1.366 1.287 2.892.014.334.163.642.404.837s.549.254.834.161c1.521-.471 2.667.113 2.433 1.884-.268 2.053-2.676 5.802-4.532 8.43-.232.335-.265.794-.083 1.167s.543.588.919.547c.903-.17 1.672 0 1.873.885.301 1.592-2.826 6.904-4.807 10.069-.226.353-.236.826-.025 1.191s.6.547.978.457c2.207-.443 4.514-.132.042 5.133z" class="B C"/><path d="M673.583 287.625c-5.791 18.682-22.823 13.28-28.083 22.305-4.299 7.398-3.633 10.249-5.656 12.715-.682-3.341 1.119-5.393.603-14.362-.619-10.945-17.587-16.63-14.517-36.196 3.292-21.044 28.265-11.397 28.265-11.397 1.407.402 2.795.895 4.157 1.477 7.005 2.946 19.848 10.569 15.231 25.458z" class="D E"/><path d="M673.052 287.105c-5.775 18.676-22.76 13.276-28.005 22.298-4.288 7.396-3.623 10.246-5.641 12.711 1.503-3.104 3.078-14.461 5.071-17.396s14.367-10.557 17.895-21.79c4.296-13.634-4.517-21.264-4.517-21.264 6.993 2.936 19.802 10.557 15.197 25.441zm-32.047-28.622s-13.216 1.123-15.283 13.739c0 0-1.528 11.284 4.765 18.077 0 0-2.582-10.171-.448-18.534 2.357-9.277 10.966-13.282 10.966-13.282z" class="B C"/><path d="M630.887 263.255l9.329 4.161 3.414 1.543 2.982 1.36 2.102 1.015.815.406-.815-.193-2.208-.599c-2.206-.669-4.382-1.485-6.518-2.446l-3.406-1.664-2.892-1.675-1.988-1.339-.815-.569zm2.66 19.09l9.337 3.376 3.415 1.248 2.981 1.106 2.106.826.803.337-.803-.14-2.194-.441c-2.208-.511-4.391-1.156-6.541-1.932l-3.407-1.37c-1.077-.431-2.073-.938-2.909-1.388l-2.009-1.144-.779-.478z" class="B C"/><path d="M646.332 278.633l1.085.379 2.859.973 4.071 1.235 4.676 1.293 4.701 1.176 2.178.515 1.951.428 2.927.632 1.119.263-1.136-.049-2.985-.243-4.205-.603-4.769-1.06-4.693-1.429-4.003-1.575c-1.16-.486-2.102-.972-2.767-1.332l-1.009-.603zm-12.785 13.787l1.078.459 2.859 1.136 4.065 1.501 4.675 1.594 4.71 1.47 2.172.636 1.96.542 2.936.813 1.112.333-1.146-.104-2.995-.386-4.243-.834-4.777-1.344-4.684-1.741-3.989-1.865c-1.154-.574-2.095-1.157-2.749-1.543s-.984-.667-.984-.667z" class="B C"/><path d="M533.149 20.957c-2.119-.216-5.128-.445-4.946-4.402.032-.577.023-1.148-.026-1.71-.137-1.094.493-2.274 1.567-2.937 2.044-1.252 4.022-2.622 5.92-4.099 7.235-5.525 5.924-14.531.926-6.057-1.779 3.11-4.154 5.942-6.976 8.318-1.156.956-2.733 1.045-3.671.208-2.058-1.01-3.219-3.085-3.066-5.475.25-3.703 3.01-4.235 2.909-4.615s-1.628.274-1.628.274c-3.846 1.984-2.708 9.128-2.708 9.128l4.46 10.546c2.951 5.163 9.278 1.025 7.239.822z" class="B C D E"/><path d="M482.995 35.11c-16.906-.461-34.071-8.612-34.022-12.707.001-1.592 2.568-2.536 8.849-2.243 22.294 1.163 40.877-6.676 51.998-11.333 3.495-1.586 7.284-1.782 10.444-.54 3.583 1.52 5.913 4.722 6.283 8.636a13.94 13.94 0 0 1-.132 3.367c-1.923 11.526-19.75 15.456-43.42 14.82z" class="D E"/><path d="M483.138 35.078c-16.907-.42-34.054-8.523-33.996-12.615 13.699 13.476 53.754 7.156 63.535 4.322 5.624-1.52 10.021-3.128 11.959-8.474 0 0 .308.675 1.692 2.273-1.951 11.52-19.519 15.073-43.19 14.494z" class="B C"/><use xlink:href="#D" class="B C"/><use xlink:href="#D" class="D E"/><path d="M738.294 67.361l.341-2.994c-1.323-1.193-3.081-3.287-2.363-5.628.199-.728.608-1.35 1.153-1.756.597-.415 1.275-.632 1.966-.63 1.162-.003 2.274-.567 3.081-1.564 4.527-5.932 12.097-7.069 19.989-2.578 8.269 4.716 10.471 11.785 10.859 16.883.147 1.593.724 3.086 1.644 4.255a6.55 6.55 0 0 1 .879 1.531c.331.811.385 1.743.151 2.6-.756 2.701-3.308 2.634-4.858 2.251-9.082 16.591-34.023 4.739-32.842-12.37z" class="D E"/><g style="mix-blend-mode:multiply" class="B C"><path d="M738.301 67.269c0-.396.057-.769.094-1.131.133-1.065-.157-2.144-.784-2.917-1.011-1.21-1.89-2.838-1.332-4.636.199-.732.607-1.356 1.153-1.764-.285 1.291.326 2.623 1.389 3.03 1.057.579 1.804 1.749 1.994 3.121 1.143 7.994 9.553 13.207 9.553 13.207 7.342 4.274 12.926 2.861 16.016 1.255 1.715-.863 3.585-1.186 5.434-.939 1.501.318 3.031-.336 4.025-1.719.331.815.385 1.751.151 2.612-.46 1.544-1.712 2.545-3.08 2.465-1.143.064-2.214.69-2.958 1.73-9.874 13.806-32.789 2.171-31.655-14.315z"/></g><path d="M762.245 54.383s7.891 3.887 9.04 12.061c0 0 .177 5.21-4.287-.627s-13.456-12.323-11.094-13.224 6.341 1.79 6.341 1.79z" class="B C"/><path d="M562.639 263.073s-9.244 2.223-10.742 3.381c-1.799 1.516-3.503 3.181-5.095 4.977-1.668 1.873-4.002 2.698-6.09 2.152-1.001-.286-2.063-.352-3.135-.195-4.908.749-21.333 18.988-45.913 20.118-22.349 1.025-40.643-4.787-41.555-9.398s-3.382-8.85-5.196-7.939c-2.756 1.401.387 9.633.602 10.53.356 1.457-.225 6.067.181 7.949 4.186 19.19 35.56 25.657 55.648 22.709 21.489-3.147 40.237-21.517 43.595-30.986.766-2.005 1.09-4.133.94-6.184-.257-2.227.441-4.596 1.892-6.411a40.63 40.63 0 0 1 4.738-5.096c3.239-2.373 10.295-4.021 10.295-4.021l-.165-1.586z" class="D E"/><path d="M458.188 293.044c.97 1.741 3.023 2.386 4.869 1.532l-5.067 11.108c-.949-2.347-3.024-3.889-5.46-4.059m16.028-5.144c1.156 1.496 3.169 1.831 4.9.815 3.021-1.749-2.991 12.352-2.991 12.352s-1.129-2.36-4.882-1.645m17.023-10.358c1.847 1.698 4.584 1.826 6.866.322 3.92-2.626.738 11.668.697 11.797s-2.4 2.344-2.4 2.344c-1.991-1.832-4.862-2.177-7.459-.897m18.722-13.564c1.47.979 3.411.874 5-.268 2.788-2.018 1.638 8.683 1.638 8.683l-.026 4.16c-2.256-.787-4.867-.005-6.705 2.009-3.074 3.496-4.388-5.849-4.388-5.849m19.13-14.388s2.53 1.276 5.88-2.025 7.142 10.841 7.142 10.841l-3.52.982s-4.062.976-5.685 3.971-6.275-1.887-6.275-1.887m15.333-18.615c1.969-.523 3.804-1.73 5.224-3.439 2.102-2.737 6.711 8.017 6.711 8.017s-5.117 1.64-6.366 5.764-7.072-2.523-7.072-2.523" class="D E"/><path d="M457.37 298.875c-1.875 2.817-5.014 3.891-7.006 2.406s-2.108-4.955-.233-7.772 5.002-3.897 7.006-2.407 2.102 4.969.233 7.773z" class="B C"/><path d="M452.897 290.841s3.929-.631 4.245 3.048a7 7 0 0 1-.676 3.492s1.265-5.891-3.569-6.54zm16.214 13.174c-1.607 4.228-5.383 6.787-8.427 5.696s-4.204-5.423-2.585-9.678 5.394-6.782 8.439-5.691 4.191 5.418 2.573 9.673z" class="B C"/><path d="M462.144 295.607s4.756-2.064 6.258 2.177c.469 1.362.543 2.879.213 4.36 0 0-.183-7.396-6.471-6.537zm21.129 9.575c-1.094 5.153-4.949 8.99-8.605 8.559s-5.732-4.948-4.637-10.101 4.95-8.991 8.605-8.56 5.721 4.943 4.637 10.102z" class="B C"/><path d="M474.412 297.716s5.131-3.797 7.574.743c.75 1.47 1.079 3.226.948 5.057 0 0-1.438-8.626-8.522-5.8z" class="B C"/><ellipse rx="7.367" ry="10.055" transform="matrix(.99812 .061298 -.061846 .998086 493.685 305.425)" class="B"/><path d="M489.984 298.506s5.56-5.002 8.84-.237c1.038 1.537 1.602 3.472 1.622 5.558 0 0-2.479-9.486-10.462-5.321zm28.198 1.366c.523 5.563-2.479 10.922-6.713 11.97s-8.109-2.618-8.677-8.201 2.473-10.908 6.707-11.956 8.143 2.632 8.683 8.187z" class="B C"/><path d="M505.535 296.066s4.546-5.915 8.876-2.33c1.379 1.159 2.369 2.794 2.845 4.697 0 0-4.602-8.103-11.721-2.367zm26.155-6.366c1.778 4.203.517 9.319-2.819 11.442s-7.46.429-9.238-3.774-.517-9.319 2.812-11.428 7.467-.443 9.245 3.76z" class="B C"/><path d="M519.072 291.24s2.415-6.018 6.988-4.518c1.455.497 2.696 1.479 3.571 2.824 0 0-5.901-4.963-10.559 1.694zm22.243-11.572c2.01 2.818 1.757 6.806-.57 8.902s-5.83 1.52-7.84-1.298-1.756-6.805.565-8.919 5.835-1.502 7.845 1.315z" class="B C"/><path d="M531.849 282.786s1.243-5.326 5.106-5.065c1.233.11 2.35.648 3.217 1.55 0 0-5.344-2.831-8.323 3.515z" class="B C"/><path d="M323.364 20.055c1.463 11.471-3.642 21.944-11.453 23.38s-15.329-6.69-16.806-18.161 3.657-21.944 11.453-23.398 15.343 6.69 16.806 18.179z" class="D E"/><path d="M322.018 33.153c-1.705 5.349-5.644 9.249-10.384 10.28-7.922 1.443-15.561-6.707-17.059-18.254-1.217-9.435 2.032-18.219 7.595-21.88-1.455 4.18-1.901 8.756-1.291 13.22 1.483 11.548 9.138 19.715 17.044 18.272 1.436-.252 2.823-.806 4.095-1.637z" class="B C"/><path d="M303.906 3.911s7.821-4.771 14.332 5.176c2.26 3.543 3.671 7.754 4.079 12.183.309 2.657.309 5.353 0 8.011-.096-7.03-2.314-13.783-6.245-19.014-6.525-8.134-12.166-6.356-12.166-6.356z" fill="#d9e3cd" class="C"/><path d="M58.126 260.214c10.179 7.812 17.482 18.002 21.132 29.487l1.925-.777S74.802 268.97 60.6 258.071l-2.474 2.143z" class="B C"/><path d="M103.23 284.487c3.821 7.784-3.763 19.167-15.969 23.199-5.262 1.827-10.982 2.028-16.047.564-3.993-1.274-7.432-3.398-9.995-6.173-6.717-6.87-1.129-13.156 5.214-14.135l4.576-.726a43.62 43.62 0 0 0 7.612-1.75h0a39.66 39.66 0 0 0 5.041-2.097c9.593-4.869 16.335-5.46 19.568 1.118z" class="D E"/><path d="M102.011 284.512c3.828 7.952-3.558 19.477-15.558 23.486-5.172 1.818-10.809 1.979-15.813.45 9.259-.331 14.656-2.118 20.313-7.111 4.708-4.551 5.018-11.114.726-15.388-4.058-3.307-13.933-.705-13.933-.705 1.706-.584 3.363-1.285 4.952-2.096 9.435-4.806 16.075-5.356 19.314 1.364zm-35.895 4.935c-2.341.63-4.234 2.219-5.028 4.222-1.117 3.242 2.496 7.803 3.624 8.486s-1.465-3.872.136-7.166c1.325-2.749 6.29-2.047 7.262-4.074.471-1.03-.5-2.971-5.993-1.468zm-8.957-36.461c3.131 11.591 2.336 23.953-2.302 35.762l2.085.206s8.023-20.498 3.656-36.641l-3.439.673z" class="B C"/><path d="M76.586 294.331c-2.096 8.783-15.454 15.486-27.575 13.448-5.307-.814-9.91-3.299-12.913-6.974-2.308-3.005-3.617-6.524-3.803-10.22-.793-9.291 7.675-12.273 13.329-10.271l4.056 1.489c2.26.859 4.644 1.497 7.11 1.901h0c1.743.282 3.522.435 5.319.458 10.596.123 16.268 2.706 14.476 10.169z" class="D E"/><path d="M76.278 294.787c-2.14 8.629-15.542 15.27-27.663 13.327-5.308-.773-9.902-3.19-12.891-6.782 7.676 3.979 13.068 4.808 20.851 3.057 6.729-1.817 11.253-7.374 10.603-13.025-1.088-4.689-10.658-6.893-10.658-6.893 1.743.268 3.523.409 5.322.423 10.601.053 16.265 2.561 14.436 9.893zm-32.44-12.052c-2.306-.493-4.906.027-6.876 1.377-3.036 2.217-3.062 7.483-2.813 8.555s1.511-3.829 4.854-5.857c2.864-1.714 6.368.981 8.469-.298 1.254-.696 1.693-2.63-3.634-3.777z" class="B C"/></g></g><defs><linearGradient id="B" x1="-59.562" y1="0" x2="-59.562" y2="346.533" gradientUnits="userSpaceOnUse"><stop stop-color="#6fc45e"/><stop offset="1" stop-color="#5aa250"/></linearGradient><clipPath id="C"><path d="M0 0h768v300H0z" class="B"/></clipPath><path id="D" d="M525.68 10.176s-2.752-2.057-5.232-1.778-5.447 2.885-7.207 3.763.117 1.837 2.962.916 6.802-1.62 7.625-.351-3.82 3.91-4.563 6.441.088 2.46 1.417.365 4.891-2.996 5.115-1.4-4.984 4.946-5.136 6.768c-.067.75.838-.462 2.112-1.219 1.811-1.073 3.299-.735 3.843-2.332"/></defs></svg>